<?xml version="1.0" encoding="utf-8"?>
<!-- Generator: Adobe Illustrator 28.2.0, SVG Export Plug-In . SVG Version: 6.00 Build 0)  -->
<svg version="1.1" id="Layer_1" xmlns="http://www.w3.org/2000/svg" xmlns:xlink="http://www.w3.org/1999/xlink" x="0px" y="0px"
	 viewBox="0 0 1239 1200" style="enable-background:new 0 0 1239 1200;" xml:space="preserve">
<style type="text/css">
	.st0{fill-rule:evenodd;clip-rule:evenodd;fill:#ED1E79;}
</style>
<path class="st0" d="M605.52,93.57c289.01,0,524.72,235.71,524.72,524.73c0,288.97-235.71,524.69-524.72,524.69
	c-288.98,0-524.68-235.71-524.68-524.69C80.84,329.29,316.54,93.57,605.52,93.57 M604.12,1045l117.29-0.46
	c35.45,0.46,70.57,1.51,105.9,2.92l-105.3,5.88l-117.89,4.04V1045z M604.12,994.43l115.04,3.17c34.43,1.37,69.08,3.87,103.51,6.05
	l-103.3,2.81l-115.25,0.28V994.43z M604.12,946.65l109.76,6.12c33.09,2.28,66.21,5.31,99.3,8.47l-99.3-0.24l-109.76-2.32V946.65z
	 M604.12,899.89l107.94,8.9c32.49,3.06,64.79,7.14,97.14,11.11l-97.68-2.88l-107.41-5.1V899.89z M604.12,855.09l105.66,11.33
	c31.75,3.94,63.85,8.75,95.71,13.64c-32.32-1.58-64.17-2.74-96.27-5.06l-105.09-7.91V855.09z M604.12,812.38l103.82,13.43
	c31.22,4.61,62.62,10.34,93.95,15.83v0.03c-31.86-2.25-63.4-4.61-94.76-7.49l-103.01-9.84V812.38z M604.12,770.04l96.97,15.37
	c29.46,4.99,58.99,10.97,88.25,16.73c-29.6-2.49-59.31-5.48-89.13-8.72l-96.09-11.92V770.04z M604.12,730.67l95.29,17.06
	c29.07,5.38,58.04,12.16,86.59,18.35c-29.07-3.02-58.39-6.19-87.76-10.37l-94.12-13.75V730.67z M604.12,692.24l93.56,19.02
	c28.41,6.01,56.86,13.29,85.33,20.25c-29.01-3.97-57.81-8.01-86.67-12.2l-92.22-15.15V692.24z M604.12,655.71l91.95,20.46
	c28.2,6.79,55.9,14.38,84.02,21.56v0.07c-28.55-4.33-57.1-8.9-85.51-13.61l-90.46-17.2V655.71z M604.12,620.9l90.25,21.87
	c27.81,7.56,55.2,15.51,82.91,23.45c-28.37-4.99-56.15-10.06-84.35-15.37l-88.81-18.49V620.9z M604.12,586.8l88.81,23.52
	c27.39,7.49,54.42,16,81.29,24.16c-27.64-4.95-55.3-10.47-82.88-16.2l-87.23-20.08V586.8z M604.12,553.81l83.75,24.05
	c26.02,7.49,51.72,15.96,77.18,24.29c-26.38-5.49-52.67-11.08-78.97-17.02l-81.96-20.22V553.81z M604.54,424.99l111.78,37.79
	c33.12,11.18,65.57,23.88,98.3,36.07c-33.33-8.79-66.66-17.54-99.93-27.21l-110.16-32.91V424.99z M604.54,460.4l113.6,35.9
	c33.68,11.11,66.98,23.03,100.06,35.12c-33.93-8.3-67.64-16.95-101.19-26.02l-112.48-31.47V460.4z M711.32,1094.08
	c-34.07,7.63-69.41,11.71-105.76,11.71c-0.49,0-0.99-0.04-1.44-0.04v-8.51L711.32,1094.08z M605.56,130.77
	c268.59,0,487.45,218.83,487.45,487.53c0,174.21-92.29,327.51-230.46,413.76l-72.33-449.87l-184.69-50.91l-184.69,50.91
	l-72.29,449.8C210.43,945.74,118.03,792.48,118.03,618.3C118.03,349.61,337.08,130.77,605.56,130.77z M374.25,415.92l78.15-24.4
	v55.77l77.84-24.3V366.8l72.47-22.36l2.77-0.95l2.82,0.95l72.46,22.36v18.74l-76.23-27.32v13.68l76.23,24.15v21.87l-76.23-26.97v14
	l107.91,33.79c33.05,10.13,65.76,19.13,98.8,28.48l0,0c0.14,0,0.24,0,0.24,0c-17.61-6.82-35.26-13.92-52.78-20.61v-26.58
	c16.46,4.67,32.99,9.42,49.5,14.06c-16.48-6.72-32.98-13.22-49.5-19.72v-22.86l78.1,24.4v153.12L605.52,504.2l-231.27,64.83V415.92z
	"/>
</svg>
